<mxfile host="app.diagrams.net" agent="Mozilla/5.0 (Windows NT 10.0; Win64; x64) AppleWebKit/537.36 (KHTML, like Gecko) Chrome/130.0.0.0 Safari/537.36" version="24.8.3">
  <diagram name="Page-1" id="DZRQ5rsyE4lOZMoYe4Yl">
    <mxGraphModel grid="1" page="1" gridSize="10" guides="1" tooltips="1" connect="1" arrows="1" fold="1" pageScale="1" pageWidth="850" pageHeight="1100" math="0" shadow="0">
      <root>
        <mxCell id="0" />
        <mxCell id="1" parent="0" />
        <mxCell id="lb0RVnyyDdAvCAN-umlH-1" value="ShoppingCart" style="rounded=0;whiteSpace=wrap;html=1;" vertex="1" parent="1">
          <mxGeometry x="190" y="240" width="90" height="30" as="geometry" />
        </mxCell>
        <mxCell id="lb0RVnyyDdAvCAN-umlH-2" value="Ebook" style="rounded=0;whiteSpace=wrap;html=1;" vertex="1" parent="1">
          <mxGeometry x="195" y="390" width="80" height="30" as="geometry" />
        </mxCell>
        <mxCell id="lb0RVnyyDdAvCAN-umlH-3" value="Invoice" style="rounded=0;whiteSpace=wrap;html=1;" vertex="1" parent="1">
          <mxGeometry x="600" y="240" width="80" height="30" as="geometry" />
        </mxCell>
        <mxCell id="lb0RVnyyDdAvCAN-umlH-4" value="Payment" style="rounded=0;whiteSpace=wrap;html=1;" vertex="1" parent="1">
          <mxGeometry x="560" y="120" width="80" height="30" as="geometry" />
        </mxCell>
        <mxCell id="lb0RVnyyDdAvCAN-umlH-5" value="Customer" style="rounded=0;whiteSpace=wrap;html=1;" vertex="1" parent="1">
          <mxGeometry x="195" y="120" width="80" height="30" as="geometry" />
        </mxCell>
        <mxCell id="lb0RVnyyDdAvCAN-umlH-6" value="Discount" style="rounded=0;whiteSpace=wrap;html=1;" vertex="1" parent="1">
          <mxGeometry x="600" y="368" width="80" height="30" as="geometry" />
        </mxCell>
        <mxCell id="lb0RVnyyDdAvCAN-umlH-7" value="Order" style="rounded=0;whiteSpace=wrap;html=1;" vertex="1" parent="1">
          <mxGeometry x="385" y="240" width="80" height="30" as="geometry" />
        </mxCell>
        <mxCell id="lb0RVnyyDdAvCAN-umlH-10" value="" style="endArrow=diamondThin;endFill=1;endSize=24;html=1;rounded=0;entryX=0.5;entryY=1;entryDx=0;entryDy=0;exitX=0.5;exitY=0;exitDx=0;exitDy=0;" edge="1" parent="1" source="lb0RVnyyDdAvCAN-umlH-1" target="lb0RVnyyDdAvCAN-umlH-5">
          <mxGeometry width="160" relative="1" as="geometry">
            <mxPoint x="225" y="470" as="sourcePoint" />
            <mxPoint x="385" y="470" as="targetPoint" />
          </mxGeometry>
        </mxCell>
        <mxCell id="lb0RVnyyDdAvCAN-umlH-12" value="0..*" style="text;html=1;align=center;verticalAlign=middle;resizable=0;points=[];autosize=1;strokeColor=none;fillColor=none;" vertex="1" parent="1">
          <mxGeometry x="230" y="290" width="40" height="30" as="geometry" />
        </mxCell>
        <mxCell id="lb0RVnyyDdAvCAN-umlH-14" value="" style="endArrow=diamondThin;endFill=1;endSize=24;html=1;rounded=0;entryX=1;entryY=0.5;entryDx=0;entryDy=0;exitX=0.25;exitY=0;exitDx=0;exitDy=0;" edge="1" parent="1" source="lb0RVnyyDdAvCAN-umlH-7" target="lb0RVnyyDdAvCAN-umlH-5">
          <mxGeometry width="160" relative="1" as="geometry">
            <mxPoint x="205" y="320" as="sourcePoint" />
            <mxPoint x="365" y="320" as="targetPoint" />
          </mxGeometry>
        </mxCell>
        <mxCell id="lb0RVnyyDdAvCAN-umlH-15" value="0..*" style="text;html=1;align=center;verticalAlign=middle;resizable=0;points=[];autosize=1;strokeColor=none;fillColor=none;" vertex="1" parent="1">
          <mxGeometry x="295" y="128" width="40" height="30" as="geometry" />
        </mxCell>
        <mxCell id="lb0RVnyyDdAvCAN-umlH-16" value="1" style="text;html=1;align=center;verticalAlign=middle;resizable=0;points=[];autosize=1;strokeColor=none;fillColor=none;" vertex="1" parent="1">
          <mxGeometry x="385" y="200" width="30" height="30" as="geometry" />
        </mxCell>
        <mxCell id="lb0RVnyyDdAvCAN-umlH-17" value="" style="endArrow=diamondThin;endFill=0;endSize=24;html=1;rounded=0;entryX=0.25;entryY=1;entryDx=0;entryDy=0;exitX=1;exitY=0.5;exitDx=0;exitDy=0;" edge="1" parent="1" source="lb0RVnyyDdAvCAN-umlH-2" target="lb0RVnyyDdAvCAN-umlH-7">
          <mxGeometry width="160" relative="1" as="geometry">
            <mxPoint x="445" y="400" as="sourcePoint" />
            <mxPoint x="455" y="310" as="targetPoint" />
          </mxGeometry>
        </mxCell>
        <mxCell id="lb0RVnyyDdAvCAN-umlH-18" value="0..*" style="text;html=1;align=center;verticalAlign=middle;resizable=0;points=[];autosize=1;strokeColor=none;fillColor=none;" vertex="1" parent="1">
          <mxGeometry x="375" y="290" width="40" height="30" as="geometry" />
        </mxCell>
        <mxCell id="lb0RVnyyDdAvCAN-umlH-19" value="1" style="text;html=1;align=center;verticalAlign=middle;resizable=0;points=[];autosize=1;strokeColor=none;fillColor=none;" vertex="1" parent="1">
          <mxGeometry x="295" y="380" width="30" height="30" as="geometry" />
        </mxCell>
        <mxCell id="lb0RVnyyDdAvCAN-umlH-22" style="edgeStyle=orthogonalEdgeStyle;rounded=0;orthogonalLoop=1;jettySize=auto;html=1;exitX=0.5;exitY=1;exitDx=0;exitDy=0;" edge="1" parent="1" source="lb0RVnyyDdAvCAN-umlH-3" target="lb0RVnyyDdAvCAN-umlH-3">
          <mxGeometry relative="1" as="geometry" />
        </mxCell>
        <mxCell id="lb0RVnyyDdAvCAN-umlH-24" value="1" style="text;html=1;align=center;verticalAlign=middle;resizable=0;points=[];autosize=1;strokeColor=none;fillColor=none;" vertex="1" parent="1">
          <mxGeometry x="460" y="188" width="30" height="30" as="geometry" />
        </mxCell>
        <mxCell id="lb0RVnyyDdAvCAN-umlH-26" value="" style="endArrow=none;html=1;rounded=0;entryX=0.5;entryY=1;entryDx=0;entryDy=0;exitX=0.5;exitY=0;exitDx=0;exitDy=0;" edge="1" parent="1" source="lb0RVnyyDdAvCAN-umlH-6" target="lb0RVnyyDdAvCAN-umlH-3">
          <mxGeometry width="50" height="50" relative="1" as="geometry">
            <mxPoint x="470" y="370" as="sourcePoint" />
            <mxPoint x="520" y="320" as="targetPoint" />
          </mxGeometry>
        </mxCell>
        <mxCell id="lb0RVnyyDdAvCAN-umlH-27" value="&lt;font style=&quot;font-size: 11px;&quot;&gt;1&lt;/font&gt;" style="text;html=1;align=center;verticalAlign=middle;resizable=0;points=[];autosize=1;strokeColor=none;fillColor=none;" vertex="1" parent="1">
          <mxGeometry x="235" y="170" width="30" height="30" as="geometry" />
        </mxCell>
        <mxCell id="lb0RVnyyDdAvCAN-umlH-28" value="1" style="text;html=1;align=center;verticalAlign=middle;resizable=0;points=[];autosize=1;strokeColor=none;fillColor=none;" vertex="1" parent="1">
          <mxGeometry x="230" y="338" width="30" height="30" as="geometry" />
        </mxCell>
        <mxCell id="lb0RVnyyDdAvCAN-umlH-29" value="1" style="text;html=1;align=center;verticalAlign=middle;resizable=0;points=[];autosize=1;strokeColor=none;fillColor=none;" vertex="1" parent="1">
          <mxGeometry x="490" y="230" width="30" height="30" as="geometry" />
        </mxCell>
        <mxCell id="lb0RVnyyDdAvCAN-umlH-32" value="" style="endArrow=diamondThin;endFill=1;endSize=24;html=1;rounded=0;exitX=0;exitY=0.5;exitDx=0;exitDy=0;entryX=0.831;entryY=0.037;entryDx=0;entryDy=0;entryPerimeter=0;" edge="1" parent="1" source="lb0RVnyyDdAvCAN-umlH-4" target="lb0RVnyyDdAvCAN-umlH-7">
          <mxGeometry width="160" relative="1" as="geometry">
            <mxPoint x="450" y="350" as="sourcePoint" />
            <mxPoint x="470" y="250" as="targetPoint" />
          </mxGeometry>
        </mxCell>
        <mxCell id="lb0RVnyyDdAvCAN-umlH-33" value="" style="endArrow=diamondThin;endFill=1;endSize=24;html=1;rounded=0;entryX=1;entryY=0.5;entryDx=0;entryDy=0;exitX=0;exitY=0.5;exitDx=0;exitDy=0;" edge="1" parent="1" source="lb0RVnyyDdAvCAN-umlH-7" target="lb0RVnyyDdAvCAN-umlH-1">
          <mxGeometry width="160" relative="1" as="geometry">
            <mxPoint x="450" y="350" as="sourcePoint" />
            <mxPoint x="610" y="350" as="targetPoint" />
          </mxGeometry>
        </mxCell>
        <mxCell id="lb0RVnyyDdAvCAN-umlH-35" value="1" style="text;html=1;align=center;verticalAlign=middle;resizable=0;points=[];autosize=1;strokeColor=none;fillColor=none;" vertex="1" parent="1">
          <mxGeometry x="295" y="228" width="30" height="30" as="geometry" />
        </mxCell>
        <mxCell id="lb0RVnyyDdAvCAN-umlH-36" value="" style="endArrow=none;html=1;rounded=0;entryX=0.5;entryY=1;entryDx=0;entryDy=0;exitX=0.5;exitY=0;exitDx=0;exitDy=0;" edge="1" parent="1" source="lb0RVnyyDdAvCAN-umlH-3" target="lb0RVnyyDdAvCAN-umlH-4">
          <mxGeometry width="50" height="50" relative="1" as="geometry">
            <mxPoint x="510" y="370" as="sourcePoint" />
            <mxPoint x="560" y="320" as="targetPoint" />
          </mxGeometry>
        </mxCell>
        <mxCell id="lb0RVnyyDdAvCAN-umlH-37" value="1" style="text;html=1;align=center;verticalAlign=middle;resizable=0;points=[];autosize=1;strokeColor=none;fillColor=none;" vertex="1" parent="1">
          <mxGeometry x="610" y="158" width="30" height="30" as="geometry" />
        </mxCell>
        <mxCell id="lb0RVnyyDdAvCAN-umlH-38" value="1" style="text;html=1;align=center;verticalAlign=middle;resizable=0;points=[];autosize=1;strokeColor=none;fillColor=none;" vertex="1" parent="1">
          <mxGeometry x="630" y="210" width="30" height="30" as="geometry" />
        </mxCell>
        <mxCell id="t-jGCX7FmQdSo-XRcs_A-1" value="" style="endArrow=diamondThin;endFill=0;endSize=24;html=1;rounded=0;entryX=1;entryY=0.5;entryDx=0;entryDy=0;exitX=0;exitY=0.5;exitDx=0;exitDy=0;" edge="1" parent="1" source="lb0RVnyyDdAvCAN-umlH-3" target="lb0RVnyyDdAvCAN-umlH-7">
          <mxGeometry width="160" relative="1" as="geometry">
            <mxPoint x="610" y="393" as="sourcePoint" />
            <mxPoint x="455" y="280" as="targetPoint" />
          </mxGeometry>
        </mxCell>
        <mxCell id="t-jGCX7FmQdSo-XRcs_A-2" value="0..*" style="text;html=1;align=center;verticalAlign=middle;resizable=0;points=[];autosize=1;strokeColor=none;fillColor=none;" vertex="1" parent="1">
          <mxGeometry x="480" y="280" width="40" height="30" as="geometry" />
        </mxCell>
        <mxCell id="t-jGCX7FmQdSo-XRcs_A-3" value="" style="endArrow=none;html=1;rounded=0;entryX=0;entryY=0.5;entryDx=0;entryDy=0;exitX=0.75;exitY=1;exitDx=0;exitDy=0;" edge="1" parent="1" source="lb0RVnyyDdAvCAN-umlH-7" target="lb0RVnyyDdAvCAN-umlH-6">
          <mxGeometry width="50" height="50" relative="1" as="geometry">
            <mxPoint x="400" y="270" as="sourcePoint" />
            <mxPoint x="450" y="220" as="targetPoint" />
          </mxGeometry>
        </mxCell>
        <mxCell id="t-jGCX7FmQdSo-XRcs_A-4" value="" style="endArrow=diamondThin;endFill=0;endSize=24;html=1;rounded=0;entryX=0.5;entryY=1;entryDx=0;entryDy=0;exitX=0.5;exitY=0;exitDx=0;exitDy=0;" edge="1" parent="1" source="lb0RVnyyDdAvCAN-umlH-2" target="lb0RVnyyDdAvCAN-umlH-1">
          <mxGeometry width="160" relative="1" as="geometry">
            <mxPoint x="285" y="415" as="sourcePoint" />
            <mxPoint x="415" y="280" as="targetPoint" />
          </mxGeometry>
        </mxCell>
        <mxCell id="rK-zT5Avq-kYGSAcKNjD-1" value="VIPCustomer" style="rounded=0;whiteSpace=wrap;html=1;" vertex="1" parent="1">
          <mxGeometry x="195" width="80" height="30" as="geometry" />
        </mxCell>
        <mxCell id="rK-zT5Avq-kYGSAcKNjD-3" value="" style="endArrow=block;endSize=16;endFill=0;html=1;rounded=0;entryX=0.5;entryY=0;entryDx=0;entryDy=0;exitX=0.5;exitY=1;exitDx=0;exitDy=0;" edge="1" parent="1" source="rK-zT5Avq-kYGSAcKNjD-1" target="lb0RVnyyDdAvCAN-umlH-5">
          <mxGeometry width="160" relative="1" as="geometry">
            <mxPoint x="340" y="110" as="sourcePoint" />
            <mxPoint x="500" y="110" as="targetPoint" />
          </mxGeometry>
        </mxCell>
      </root>
    </mxGraphModel>
  </diagram>
</mxfile>
